<?xml version="1.0" standalone="no"?>
<!DOCTYPE svg PUBLIC "-//W3C//DTD SVG 20010904//EN"
 "http://www.w3.org/TR/2001/REC-SVG-20010904/DTD/svg10.dtd">
<svg version="1.0" xmlns="http://www.w3.org/2000/svg"
 width="225.000000pt" height="225.000000pt" viewBox="0 0 225.000000 225.000000"
 preserveAspectRatio="xMidYMid meet">
<metadata>
Created by potrace 1.11, written by Peter Selinger 2001-2013
</metadata>
<g transform="translate(0.000000,225.000000) scale(0.100000,-0.100000)"
fill="#000000" stroke="none">
<path d="M1060 2159 c-478 -31 -877 -399 -951 -879 -16 -104 -6 -315 20 -412
61 -232 203 -441 401 -589 76 -57 239 -134 335 -159 409 -106 826 31 1086 358
157 196 240 454 225 699 -24 385 -240 711 -581 878 -175 86 -334 117 -535 104z
m-135 -620 c48 -12 118 -66 139 -108 51 -99 14 -221 -81 -270 l-35 -18 55 -31
c167 -94 132 -338 -58 -399 -38 -12 -110 -17 -297 -20 l-248 -5 0 431 0 431
241 0 c142 0 258 -5 284 -11z m807 -17 c82 -41 128 -121 128 -225 0 -96 -34
-159 -110 -203 -16 -10 -30 -22 -30 -25 0 -4 34 -88 75 -186 41 -98 75 -181
75 -185 0 -5 -49 -8 -109 -8 l-109 0 -25 68 c-14 37 -44 116 -67 175 l-42 108
-71 -3 -72 -3 -3 -173 -2 -173 -98 3 -97 3 -3 428 -2 428 257 -3 c246 -3 260
-4 305 -26z"/>
<path d="M600 1305 l0 -95 88 0 c113 0 158 13 177 50 22 43 19 80 -12 112 -26
27 -29 28 -140 28 l-113 0 0 -95z"/>
<path d="M600 956 l0 -106 88 0 c48 0 105 5 127 10 83 19 111 100 56 162 l-29
33 -121 3 -121 4 0 -106z"/>
<path d="M1372 1293 l3 -108 85 -3 c99 -4 148 8 173 43 30 42 32 85 5 125 -29
42 -48 48 -171 49 l-98 1 3 -107z"/>
</g>
</svg>
